<?xml version="1.0"?>
<svg width="16" height="16" xmlns="http://www.w3.org/2000/svg" xmlns:svg="http://www.w3.org/2000/svg" class="bi bi-person-circle">
 <g class="layer">
  <title>Layer 1</title>
  <path d="m11,5.98a3,3 0 1 1 -6,0a3,3 0 0 1 6,0z" fill="#ffffff" id="svg_1"/>
  <path d="m0,8a8,8 0 1 1 16,0a8,8 0 0 1 -16,0zm8,-7a7,7 0 0 0 -5.47,11.37c0.71,-1.14 2.27,-2.37 5.47,-2.37s4.76,1.22 5.47,2.37a7,7 0 0 0 -5.47,-11.37z" fill="#ffffff" fill-rule="evenodd" id="svg_2" transform="matrix(1 0 0 1 0 0)"/>
 </g>
</svg>